<?xml version="1.0" encoding="utf-8"?>
<!-- Generator: Adobe Illustrator 13.0.0, SVG Export Plug-In . SVG Version: 6.00 Build 14948)  -->
<!DOCTYPE svg PUBLIC "-//W3C//DTD SVG 1.1//EN" "http://www.w3.org/Graphics/SVG/1.1/DTD/svg11.dtd">
<svg version="1.1" id="Layer_1" xmlns="http://www.w3.org/2000/svg" xmlns:xlink="http://www.w3.org/1999/xlink" x="0px" y="0px"
	 width="612px" height="792px" viewBox="0 0 612 792" enable-background="new 0 0 612 792" xml:space="preserve">
<title>hp-allcat2</title>
<path fill="#A8A8A8" d="M396.528,353.036c-2.023-3.968-5.602-11.125-6.769-12.993L309,199.997l-80.76,140.046
	c-1.167,1.867-4.824,8.948-6.847,12.993c-0.856,1.867-1.79,3.734-2.49,5.602c-4.842,13.257-6.753,27.404-5.602,41.47
	c4.523,52.83,51.019,91.992,103.85,87.469s91.992-51.02,87.469-103.85c-0.734-8.576-2.618-17.015-5.603-25.089
	C398.286,356.728,397.455,354.859,396.528,353.036z"/>
<path fill="#FFFFFF" d="M341.376,398.729h6.298v-11.363h-8.538l-13.911-70.771c3.961,1.428,6.493,4.383,6.493-0.211v-32.854
	c0-5.809-4.709-10.519-10.518-10.519h-25.972c-5.81,0-10.518,4.71-10.518,10.519v32.837c0,4.642,3.343,1.623,7.645,0.162
	l-13.927,70.821h-8.538v11.362h6.298l-11.817,60.172h10.875l0.714-3.619l32.79-28.764l32.772,28.764l0.715,3.619h10.891
	L341.376,398.729z M322.319,357.206l4.431,22.547l-12.985-13.586L322.319,357.206z M324.235,387.35h-30.842l15.42-16.07
	L324.235,387.35z M308.83,288.625c6.275,0,11.362,5.087,11.362,11.362c0,6.276-5.087,11.363-11.362,11.363
	c-6.274,0-11.362-5.087-11.362-11.363C297.468,293.712,302.556,288.625,308.83,288.625z M301.916,323.752h13.829l4.871,24.981
	l-11.818,12.32l-11.833-12.32L301.916,323.752z M295.423,357.206l8.587,8.96l-12.986,13.586L295.423,357.206z M278.362,443.919
	l7.419-37.708l17.855,15.6L278.362,443.919z M287.972,398.729h41.863l-21.005,18.373L287.972,398.729z M314.269,421.811l17.773-15.6
	l7.418,37.708L314.269,421.811z"/>
</svg>
